<svg width="263" height="41" viewBox="0 0 263 41" fill="none" xmlns="http://www.w3.org/2000/svg">
<path d="M52.2639 34V6.97597H56.2479V20.368L69.3519 6.97597H74.5359V7.50397L63.4479 18.112L75.1119 33.472V34H70.5039L60.5199 20.848L56.2479 24.976V34H52.2639Z" fill="#574029"/>
<path d="M84.8274 34.432C83.0034 34.432 81.5314 34.016 80.4114 33.184C79.2914 32.32 78.4594 31.136 77.9154 29.632C77.4034 28.096 77.1474 26.352 77.1474 24.4C77.1474 21.424 77.7554 18.992 78.9714 17.104C80.1874 15.184 82.1394 14.224 84.8274 14.224C86.2674 14.224 87.4354 14.48 88.3314 14.992C89.2274 15.504 89.9154 16.08 90.3954 16.72C90.9074 17.36 91.2594 17.92 91.4514 18.4H91.5474V14.368H95.6274V34H92.2194L91.5474 30.496H91.4514C91.2594 30.976 90.9074 31.536 90.3954 32.176C89.8834 32.784 89.1794 33.312 88.2834 33.76C87.3874 34.208 86.2354 34.432 84.8274 34.432ZM86.4114 31.024C88.2994 31.024 89.6114 30.416 90.3474 29.2C91.1154 27.984 91.4994 26.4 91.4994 24.448C91.4994 22.4 91.0994 20.784 90.2994 19.6C89.5314 18.416 88.2354 17.824 86.4114 17.824C85.0674 17.824 84.0114 18.128 83.2434 18.736C82.4754 19.312 81.9154 20.096 81.5634 21.088C81.2434 22.08 81.0834 23.184 81.0834 24.4C81.0834 26.288 81.4834 27.872 82.2834 29.152C83.0834 30.4 84.4594 31.024 86.4114 31.024Z" fill="#574029"/>
<path d="M99.488 34V14.368H103.184L103.52 19.696C103.712 18.832 104.08 18 104.624 17.2C105.2 16.368 105.984 15.696 106.976 15.184C108 14.64 109.296 14.368 110.864 14.368H111.68V18.784H110.816C108.864 18.784 107.36 19.04 106.304 19.552C105.248 20.032 104.512 20.752 104.096 21.712C103.68 22.64 103.472 23.792 103.472 25.168V34H99.488Z" fill="#574029"/>
<path d="M114.527 34V14.368H117.983L118.079 18.928H118.175C118.239 18.768 118.367 18.448 118.559 17.968C118.783 17.488 119.119 16.976 119.567 16.432C120.047 15.856 120.671 15.376 121.439 14.992C122.207 14.576 123.151 14.368 124.271 14.368C125.967 14.368 127.215 14.832 128.015 15.76C128.847 16.656 129.439 17.712 129.791 18.928H129.887C129.919 18.768 130.063 18.448 130.319 17.968C130.575 17.488 130.943 16.976 131.423 16.432C131.935 15.856 132.591 15.376 133.391 14.992C134.191 14.576 135.167 14.368 136.319 14.368C137.567 14.368 138.575 14.624 139.343 15.136C140.143 15.648 140.751 16.32 141.167 17.152C141.615 17.952 141.919 18.816 142.079 19.744C142.271 20.64 142.383 21.504 142.415 22.336C142.447 23.168 142.463 23.856 142.463 24.4V34H139.055V24.352C139.055 23.872 139.023 23.28 138.959 22.576C138.927 21.84 138.783 21.12 138.527 20.416C138.303 19.68 137.903 19.088 137.327 18.64C136.783 18.16 135.999 17.92 134.975 17.92C133.759 17.92 132.815 18.24 132.143 18.88C131.471 19.52 130.991 20.368 130.703 21.424C130.415 22.448 130.271 23.52 130.271 24.64V34H126.863V24.352C126.863 23.872 126.831 23.28 126.767 22.576C126.735 21.84 126.591 21.12 126.335 20.416C126.111 19.68 125.711 19.088 125.135 18.64C124.591 18.16 123.807 17.92 122.783 17.92C121.567 17.92 120.623 18.24 119.951 18.88C119.279 19.52 118.799 20.368 118.511 21.424C118.223 22.448 118.079 23.52 118.079 24.64V34H114.527Z" fill="#574029"/>
<path d="M153.031 34.432C151.207 34.432 149.735 34.016 148.615 33.184C147.495 32.32 146.663 31.136 146.119 29.632C145.607 28.096 145.351 26.352 145.351 24.4C145.351 21.424 145.959 18.992 147.175 17.104C148.391 15.184 150.343 14.224 153.031 14.224C154.471 14.224 155.639 14.48 156.535 14.992C157.431 15.504 158.119 16.08 158.599 16.72C159.111 17.36 159.463 17.92 159.655 18.4H159.751V14.368H163.831V34H160.423L159.751 30.496H159.655C159.463 30.976 159.111 31.536 158.599 32.176C158.087 32.784 157.383 33.312 156.487 33.76C155.591 34.208 154.439 34.432 153.031 34.432ZM154.615 31.024C156.503 31.024 157.815 30.416 158.551 29.2C159.319 27.984 159.703 26.4 159.703 24.448C159.703 22.4 159.303 20.784 158.503 19.6C157.735 18.416 156.439 17.824 154.615 17.824C153.271 17.824 152.215 18.128 151.447 18.736C150.679 19.312 150.119 20.096 149.767 21.088C149.447 22.08 149.287 23.184 149.287 24.4C149.287 26.288 149.687 27.872 150.487 29.152C151.287 30.4 152.663 31.024 154.615 31.024Z" fill="#574029"/>
<path d="M190.853 34.48C188.357 34.48 186.085 33.968 184.037 32.944C182.021 31.888 180.421 30.336 179.237 28.288C178.085 26.208 177.509 23.632 177.509 20.56C177.541 17.52 178.133 14.96 179.285 12.88C180.437 10.768 182.021 9.18397 184.037 8.12797C186.085 7.03997 188.421 6.49597 191.045 6.49597C194.533 6.49597 197.349 7.42397 199.493 9.27997C201.637 11.136 202.965 13.568 203.477 16.576H199.349C199.093 15.04 198.533 13.808 197.669 12.88C196.837 11.952 195.829 11.28 194.645 10.864C193.493 10.448 192.293 10.24 191.045 10.24C188.005 10.24 185.653 11.12 183.989 12.88C182.325 14.608 181.493 17.088 181.493 20.32C181.493 23.712 182.309 26.304 183.941 28.096C185.573 29.856 187.893 30.736 190.901 30.736C192.981 30.736 194.837 30.24 196.469 29.248C198.101 28.224 199.109 26.576 199.493 24.304H203.669C203.125 27.312 201.781 29.76 199.637 31.648C197.493 33.536 194.565 34.48 190.853 34.48Z" fill="#574029"/>
<path d="M213.827 34.432C212.003 34.432 210.531 34.016 209.411 33.184C208.291 32.32 207.459 31.136 206.915 29.632C206.403 28.096 206.147 26.352 206.147 24.4C206.147 21.424 206.755 18.992 207.971 17.104C209.187 15.184 211.139 14.224 213.827 14.224C215.267 14.224 216.435 14.48 217.331 14.992C218.227 15.504 218.915 16.08 219.395 16.72C219.907 17.36 220.259 17.92 220.451 18.4H220.547V14.368H224.627V34H221.219L220.547 30.496H220.451C220.259 30.976 219.907 31.536 219.395 32.176C218.883 32.784 218.179 33.312 217.283 33.76C216.387 34.208 215.235 34.432 213.827 34.432ZM215.411 31.024C217.299 31.024 218.611 30.416 219.347 29.2C220.115 27.984 220.499 26.4 220.499 24.448C220.499 22.4 220.099 20.784 219.299 19.6C218.531 18.416 217.235 17.824 215.411 17.824C214.067 17.824 213.011 18.128 212.243 18.736C211.475 19.312 210.915 20.096 210.563 21.088C210.243 22.08 210.083 23.184 210.083 24.4C210.083 26.288 210.483 27.872 211.283 29.152C212.083 30.4 213.459 31.024 215.411 31.024Z" fill="#574029"/>
<path d="M228.488 34V14.368H232.184L232.52 19.696C232.712 18.832 233.08 18 233.624 17.2C234.2 16.368 234.984 15.696 235.976 15.184C237 14.64 238.296 14.368 239.864 14.368H240.68V18.784H239.816C237.864 18.784 236.36 19.04 235.304 19.552C234.248 20.032 233.512 20.752 233.096 21.712C232.68 22.64 232.472 23.792 232.472 25.168V34H228.488Z" fill="#574029"/>
<path d="M252.317 34.48C250.109 34.48 248.301 34 246.893 33.04C245.485 32.048 244.445 30.784 243.773 29.248C243.101 27.712 242.765 26.096 242.765 24.4C242.733 22.512 243.085 20.8 243.821 19.264C244.589 17.728 245.677 16.512 247.085 15.616C248.525 14.72 250.237 14.272 252.221 14.272C253.917 14.272 255.437 14.656 256.781 15.424C258.157 16.16 259.245 17.216 260.045 18.592C260.845 19.936 261.277 21.536 261.341 23.392C261.341 23.488 261.341 23.68 261.341 23.968C261.373 24.224 261.389 24.448 261.389 24.64H246.557C246.557 26.688 247.053 28.288 248.045 29.44C249.069 30.56 250.477 31.12 252.269 31.12C253.613 31.12 254.749 30.784 255.677 30.112C256.637 29.408 257.229 28.48 257.453 27.328H261.341C261.053 29.376 260.125 31.088 258.557 32.464C256.989 33.808 254.909 34.48 252.317 34.48ZM246.701 22.672H257.357C257.325 22.32 257.229 21.856 257.069 21.28C256.909 20.704 256.637 20.144 256.253 19.6C255.901 19.024 255.389 18.544 254.717 18.16C254.045 17.776 253.181 17.584 252.125 17.584C250.813 17.584 249.773 17.872 249.005 18.448C248.269 18.992 247.709 19.664 247.325 20.464C246.973 21.232 246.765 21.968 246.701 22.672Z" fill="#574029"/>
<mask id="mask0_7_71" style="mask-type:alpha" maskUnits="userSpaceOnUse" x="1" y="1" width="39" height="39">
<circle cx="20.5" cy="20.5" r="19.5" fill="#D9D9D9"/>
</mask>
<g mask="url(#mask0_7_71)">
<g filter="url(#filter0_f_7_71)">
<circle cx="20.5001" cy="20.4999" r="30.1364" fill="url(#paint0_angular_7_71)"/>
</g>
</g>
<g filter="url(#filter1_dd_7_71)">
<circle cx="20.4998" cy="20.5" r="12.1216" fill="url(#paint1_linear_7_71)"/>
</g>
<defs>
<filter id="filter0_f_7_71" x="-14.6362" y="-14.6364" width="70.2727" height="70.2728" filterUnits="userSpaceOnUse" color-interpolation-filters="sRGB">
<feFlood flood-opacity="0" result="BackgroundImageFix"/>
<feBlend mode="normal" in="SourceGraphic" in2="BackgroundImageFix" result="shape"/>
<feGaussianBlur stdDeviation="2.5" result="effect1_foregroundBlur_7_71"/>
</filter>
<filter id="filter1_dd_7_71" x="4.37817" y="8.37842" width="32.2432" height="32.2433" filterUnits="userSpaceOnUse" color-interpolation-filters="sRGB">
<feFlood flood-opacity="0" result="BackgroundImageFix"/>
<feColorMatrix in="SourceAlpha" type="matrix" values="0 0 0 0 0 0 0 0 0 0 0 0 0 0 0 0 0 0 127 0" result="hardAlpha"/>
<feMorphology radius="1" operator="erode" in="SourceAlpha" result="effect1_dropShadow_7_71"/>
<feOffset dy="2"/>
<feGaussianBlur stdDeviation="1"/>
<feComposite in2="hardAlpha" operator="out"/>
<feColorMatrix type="matrix" values="0 0 0 0 0.250622 0 0 0 0 0.250622 0 0 0 0 0.250622 0 0 0 0.49 0"/>
<feBlend mode="normal" in2="BackgroundImageFix" result="effect1_dropShadow_7_71"/>
<feColorMatrix in="SourceAlpha" type="matrix" values="0 0 0 0 0 0 0 0 0 0 0 0 0 0 0 0 0 0 127 0" result="hardAlpha"/>
<feOffset dy="4"/>
<feGaussianBlur stdDeviation="2"/>
<feComposite in2="hardAlpha" operator="out"/>
<feColorMatrix type="matrix" values="0 0 0 0 0 0 0 0 0 0 0 0 0 0 0 0 0 0 0.25 0"/>
<feBlend mode="normal" in2="effect1_dropShadow_7_71" result="effect2_dropShadow_7_71"/>
<feBlend mode="normal" in="SourceGraphic" in2="effect2_dropShadow_7_71" result="shape"/>
</filter>
<radialGradient id="paint0_angular_7_71" cx="0" cy="0" r="1" gradientUnits="userSpaceOnUse" gradientTransform="translate(20.5001 20.4999) rotate(90) scale(30.1364)">
<stop stop-color="#FF236C"/>
<stop offset="0.12" stop-color="#702EDE"/>
<stop offset="0.28" stop-color="#EABCF8"/>
<stop offset="0.425" stop-color="#8490EA"/>
<stop offset="0.59" stop-color="#80E590"/>
<stop offset="0.71" stop-color="#F4DA2F"/>
<stop offset="0.815" stop-color="#FFA82E"/>
<stop offset="1" stop-color="#FF106B"/>
</radialGradient>
<linearGradient id="paint1_linear_7_71" x1="20.4998" y1="8.37842" x2="20.4998" y2="32.6217" gradientUnits="userSpaceOnUse">
<stop stop-color="white"/>
<stop offset="1" stop-color="#FFEDDB"/>
</linearGradient>
</defs>
</svg>
